<svg xmlns="http://www.w3.org/2000/svg" version="1.1" xmlns:xlink="http://www.w3.org/1999/xlink" width="200" height="200"><svg xmlns="http://www.w3.org/2000/svg" version="1.1" xmlns:xlink="http://www.w3.org/1999/xlink" viewBox="0 0 200 200"><rect width="200" height="200" fill="url('#gradient')"></rect><defs><linearGradient id="SvgjsLinearGradient1006" gradientTransform="rotate(109 0.5 0.5)"><stop offset="0%" stop-color="#9d9e8c"></stop><stop offset="100%" stop-color="#ebf355"></stop></linearGradient></defs><g><g fill="#1b3855" transform="matrix(1.7048034934497815,0,0,1.7048034934497815,38.25131520428512,112.79443277542248)" stroke="#0e5278" stroke-width="0"><path d="M10.17 0L6.88 0Q6.70-0.32 6.56-0.95L6.56-0.95Q5.65 0.20 4.02 0.20L4.02 0.20Q2.53 0.20 1.48-0.71Q0.44-1.61 0.44-2.98L0.44-2.98Q0.44-4.70 1.71-5.58Q2.98-6.46 5.40-6.46L5.40-6.46L6.42-6.46L6.42-7.01Q6.42-8.47 5.16-8.47L5.16-8.47Q3.98-8.47 3.98-7.31L3.98-7.31L0.69-7.31Q0.69-8.85 2.00-9.80Q3.30-10.76 5.32-10.76Q7.34-10.76 8.52-9.78Q9.69-8.79 9.72-7.07L9.72-7.07L9.72-2.39Q9.74-0.94 10.17-0.17L10.17-0.17L10.17 0ZM4.81-2.15L4.81-2.15Q5.43-2.15 5.83-2.41Q6.24-2.68 6.42-3.01L6.42-3.01L6.42-4.70L5.46-4.70Q3.74-4.70 3.74-3.15L3.74-3.15Q3.74-2.71 4.04-2.43Q4.35-2.15 4.81-2.15ZM17.07-2.97L17.07-2.97Q17.07-3.39 16.63-3.64Q16.19-3.90 14.96-4.17Q13.73-4.44 12.93-4.89Q12.13-5.33 11.71-5.97Q11.29-6.60 11.29-7.42L11.29-7.42Q11.29-8.88 12.49-9.82Q13.69-10.76 15.63-10.76L15.63-10.76Q17.72-10.76 18.99-9.81Q20.26-8.87 20.26-7.32L20.26-7.32L16.96-7.32Q16.96-8.59 15.63-8.59L15.63-8.59Q15.11-8.59 14.76-8.31Q14.40-8.02 14.40-7.59L14.40-7.59Q14.40-7.15 14.83-6.88Q15.26-6.60 16.21-6.43Q17.15-6.25 17.86-6.01L17.86-6.01Q20.24-5.19 20.24-3.07L20.24-3.07Q20.24-1.62 18.96-0.71Q17.68 0.20 15.63 0.20L15.63 0.20Q14.28 0.20 13.21-0.29Q12.15-0.78 11.55-1.62Q10.96-2.46 10.96-3.39L10.96-3.39L14.03-3.39Q14.05-2.66 14.52-2.32Q14.99-1.98 15.72-1.98L15.72-1.98Q16.40-1.98 16.73-2.26Q17.07-2.53 17.07-2.97ZM25-15L25-9.43Q26.05-10.76 27.70-10.76L27.70-10.76Q29.44-10.76 30.33-9.73Q31.22-8.69 31.24-6.67L31.24-6.67L31.24 0L27.94 0L27.94-6.59Q27.94-7.43 27.60-7.83Q27.26-8.22 26.44-8.22L26.44-8.22Q25.42-8.22 25-7.58L25-7.58L25 0L21.71 0L21.71-15L25-15ZM36.54-10.57L36.54 0L33.24 0L33.24-10.57L36.54-10.57ZM33.05-13.29L33.05-13.29Q33.05-13.99 33.55-14.44Q34.06-14.89 34.87-14.89Q35.68-14.89 36.19-14.44Q36.70-13.99 36.70-13.29Q36.70-12.59 36.19-12.14Q35.68-11.69 34.87-11.69Q34.06-11.69 33.55-12.14Q33.05-12.59 33.05-13.29ZM42.60 0L39.30 0L39.30-8.28L37.76-8.28L37.76-10.57L39.30-10.57L39.30-11.41Q39.30-13.21 40.36-14.21Q41.43-15.21 43.35-15.21L43.35-15.21Q44.05-15.21 44.89-15L44.89-15L44.90-12.58Q44.60-12.67 44.09-12.67L44.09-12.67Q42.60-12.67 42.60-11.38L42.60-11.38L42.60-10.57L44.66-10.57L44.66-8.28L42.60-8.28L42.60 0ZM55.91 0.20L55.91 0.20Q53.48 0.20 51.97-1.25Q50.47-2.71 50.47-5.03L50.47-5.03L50.47-5.30Q50.47-6.92 51.07-8.16Q51.67-9.40 52.82-10.08Q53.97-10.76 55.56-10.76L55.56-10.76Q57.78-10.76 59.07-9.38Q60.36-8.00 60.36-5.53L60.36-5.53L60.36-4.25L53.82-4.25Q53.99-3.36 54.59-2.85Q55.19-2.34 56.13-2.34L56.13-2.34Q57.70-2.34 58.57-3.44L58.57-3.44L60.08-1.66Q59.46-0.81 58.33-0.31Q57.21 0.20 55.91 0.20ZM55.54-8.22L55.54-8.22Q54.09-8.22 53.82-6.31L53.82-6.31L57.14-6.31L57.14-6.56Q57.16-7.35 56.74-7.79Q56.32-8.22 55.54-8.22ZM68.23 0L65.93-3.94L65-3.01L65 0L61.71 0L61.71-15.01L65-15.01L65-7.04L65.33-7.48L67.81-10.57L71.76-10.57L68.06-6.22L72.00 0L68.23 0Z"></path></g></g></svg><style>@media (prefers-color-scheme: light) { :root { filter: none; } }
@media (prefers-color-scheme: dark) { :root { filter: none; } }
</style></svg>